Coordinates
version=1
nRows=29
nColumns=24
inDegrees=yes

Units are S.I. units (second, meters, Newtons, ...)
Angles are in degrees.

endheader
time	pelvis_tilt	pelvis_list	pelvis_rotation	pelvis_tx	pelvis_ty	pelvis_tz	hip_flexion_r	hip_adduction_r	hip_rotation_r	knee_angle_r	ankle_angle_r	subtalar_angle_r	mtp_angle_r	hip_flexion_l	hip_adduction_l	hip_rotation_l	knee_angle_l	ankle_angle_l	subtalar_angle_l	mtp_angle_l	lumbar_extension	lumbar_bending	lumbar_rotation
      4.76000000	     -9.09355512	      8.97336192	      0.50673366	     -0.11811118	     -0.01946464	      0.57618336	     25.11261602	    -15.07702627	     -4.68493037	    -66.20204369	     -5.07910521	     -1.65989517	     12.73360490	     18.01008595	     12.31229975	     -2.98755649	    -15.66696311	      1.58541785	      7.46860457	      0.62556968	      6.87840860	    -11.99153679	      1.00169863
      4.76500000	     -9.08144831	      8.65337432	      0.84966893	     -0.11203030	     -0.01836975	      0.57562104	     25.74022561	    -14.83277203	     -5.15565664	    -65.73071770	     -4.83470635	     -1.27811282	     12.92860064	     17.24311562	     12.16837139	     -2.25380413	    -15.16841060	      1.73058119	      7.22996865	      0.31583526	      6.80495185	    -11.71251744	      0.51915569
      4.77000000	     -9.07091896	      8.34004342	      1.19519212	     -0.10602907	     -0.01737288	      0.57509974	     26.36735473	    -14.58540193	     -5.60561268	    -65.20587270	     -4.63213314	     -0.91398749	     13.10434259	     16.50443553	     12.01014425	     -1.54929488	    -14.70299586	      1.89799094	      7.04574213	      0.06202681	      6.72040134	    -11.44751580	     -0.01879746
      4.77500000	     -9.04445953	      8.03292445	      1.54700871	     -0.09994666	     -0.01640141	      0.57455971	     26.93810759	    -14.35771069	     -6.09309518	    -64.58914904	     -4.44509462	     -0.62356142	     13.27812882	     15.73445024	     11.85315414	     -0.81159444	    -14.21730547	      2.04478081	      6.80206096	     -0.25571508	      6.63839578	    -11.18531246	     -0.49890899
      4.78000000	     -9.02800742	      7.73212528	      1.88590234	     -0.09394026	     -0.01553114	      0.57407929	     27.52127902	    -14.11737738	     -6.53658050	    -63.91995555	     -4.29407405	     -0.35095940	     13.41650676	     15.00331396	     11.67627088	     -0.13630936	    -13.76391429	      2.21652139	      6.62723903	     -0.52117745	      6.55768519	    -10.93380701	     -1.02079002
      4.78500000	     -9.00329785	      7.43768357	      2.22561818	     -0.08789903	     -0.01471185	      0.57360224	     28.06673413	    -13.89021455	     -6.99771241	    -63.17379857	     -4.15615462	     -0.13896815	     13.52441494	     14.26149524	     11.49420027	      0.54220599	    -13.30487168	      2.38151250	      6.43907049	     -0.80251467	      6.47989725	    -10.68615701	     -1.50772771
      4.79000000	     -8.98048314	      7.15492255	      2.55708556	     -0.08186101	     -0.01396612	      0.57314800	     28.59846458	    -13.67246651	     -7.44830778	    -62.36366275	     -4.03465110	      0.02786402	     13.58983834	     13.53109438	     11.30683689	      1.18363820	    -12.85349369	      2.54823864	      6.27193935	     -1.07648728	      6.40855444	    -10.45236856	     -1.98486668
      4.79500000	     -8.96079415	      6.88020650	      2.87988605	     -0.07583004	     -0.01329749	      0.57271853	     29.11678270	    -13.46013310	     -7.88882655	    -61.49083083	     -3.92548994	      0.15316394	     13.60112992	     12.81458429	     11.11081078	      1.78999427	    -12.41108401	      2.72043290	      6.13097460	     -1.32919600	      6.34535911	    -10.22454444	     -2.44990849
      4.80000000	     -8.93802886	      6.61946177	      3.19534184	     -0.06979645	     -0.01270347	      0.57230515	     29.61234149	    -13.26325598	     -8.32518921	    -60.55669790	     -3.81998677	      0.23307312	     13.55120327	     12.10022739	     10.91477296	      2.37766825	    -11.97076097	      2.89692115	      6.00116779	     -1.57555980	      6.28454557	    -10.01076544	     -2.89473982
      4.80500000	     -8.92653825	      6.36532577	      3.49916979	     -0.06376266	     -0.01218753	      0.57192481	     30.10104898	    -13.06684289	     -8.74204558	    -59.55817157	     -3.73008215	      0.27968122	     13.43411913	     11.41335659	     10.70884205	      2.90585207	    -11.54788815	      3.07696886	      5.90957137	     -1.77834152	      6.24309682	     -9.80617623	     -3.33596546
      4.81000000	     -8.90751097	      6.12629602	      3.79392012	     -0.05775843	     -0.01175977	      0.57155187	     30.56757129	    -12.89081329	     -9.16196142	    -58.51200457	     -3.63292203	      0.27985968	     13.24262605	     10.72269235	     10.50619039	      3.42629095	    -11.12074833	      3.26168443	      5.82736546	     -1.97039161	      6.18857977	     -9.60856756	     -3.76155192
      4.81500000	     -8.92003206	      5.88710169	      4.05597959	     -0.05171951	     -0.01141835	      0.57119755	     31.04773422	    -12.70068757	     -9.54295222	    -57.39211416	     -3.56011565	      0.27011078	     13.01304711	     10.08611057	     10.28914975	      3.82813999	    -10.71773361	      3.44076001	      5.78284359	     -2.10396713	      6.18868409	     -9.40262001	     -4.14083772
      4.82000000	     -8.87088797	      5.68691911	      4.35271309	     -0.04572760	     -0.01113291	      0.57087701	     31.43532887	    -12.57134397	     -9.96866206	    -56.24093108	     -3.44975701	      0.17409684	     12.64001776	      9.37342721	     10.10292212	      4.35934462	    -10.30172053	      3.64608822	      5.72120359	     -2.27256907	      6.09945520	     -9.25540037	     -4.57583342
      4.82500000	     -8.85810172	      5.48447798	      4.60889039	     -0.03970187	     -0.01094596	      0.57058021	     31.84493001	    -12.42355867	    -10.35450114	    -55.02476371	     -3.35625087	      0.08423551	     12.21108735	      8.71752888	      9.90191009	      4.78127741	     -9.90650857	      3.85095846	      5.68253226	     -2.41390573	      6.06719711	     -9.09260939	     -4.95588791
      4.83000000	     -8.84297293	      5.29600304	      4.85492512	     -0.03368662	     -0.01083820	      0.57030349	     32.23032530	    -12.28858787	    -10.73457542	    -53.75504901	     -3.26080120	     -0.03635464	     11.71681070	      8.07097379	      9.70557074	      5.16871786	     -9.52593773	      4.06430245	      5.66693883	     -2.53075479	      6.03300648	     -8.94426835	     -5.32726552
      4.83500000	     -8.82779136	      5.12420629	      5.08547056	     -0.02765699	     -0.01081071	      0.57003817	     32.59379774	    -12.16733005	    -11.10259454	    -52.43338204	     -3.16138540	     -0.17894420	     11.16477913	      7.43320765	      9.51829308	      5.52248434	     -9.15929501	      4.28399784	      5.66494032	     -2.63163183	      6.00385209	     -8.80468743	     -5.68144140
      4.84000000	     -8.87804976	      4.94254711	      5.25278635	     -0.02159299	     -0.01094412	      0.56983516	     33.01985617	    -12.00977248	    -11.41655454	    -51.05083574	     -3.07309385	     -0.30441075	     10.74481571	      6.88218945	      9.31246255	      5.75449942	     -8.80703628	      4.53014752	      5.67907032	     -2.67414218	      6.06422101	     -8.65191603	     -5.95091202
      4.84500000	     -8.75758039	      4.82481105	      5.51919530	     -0.01560541	     -0.01095479	      0.56956509	     33.20508740	    -11.96433627	    -11.83666613	    -49.64159002	     -2.92190450	     -0.48698890	      9.87687791	      6.13632146	      9.16533816	      6.17906807	     -8.45536580	      4.74795104	      5.68042152	     -2.82141375	      5.89591177	     -8.56652611	     -6.35800354
      4.85000000	     -8.76057367	      4.68111197	      5.70716151	     -0.00954867	     -0.01118420	      0.56938265	     33.52142436	    -11.85522524	    -12.18529059	    -48.17556397	     -2.79692500	     -0.65805799	      9.12353035	      5.54381892	      8.98624113	      6.47270794	     -8.12959916	      5.00909703	      5.69303406	     -2.93251438	      5.89290884	     -8.45228235	     -6.65898690
      4.85500000	     -8.73653914	      4.55809389	      5.88622961	     -0.00349054	     -0.01146535	      0.56920069	     33.78427559	    -11.76858512	    -12.54003068	    -46.66499760	     -2.65346071	     -0.80530562	      8.37333044	      4.92659623	      8.82254184	      6.74325680	     -7.81210801	      5.27792608	      5.71676818	     -3.04286465	      5.85695602	     -8.35184301	     -6.95616659
      4.86000000	     -8.71064883	      4.44846965	      6.05505572	      0.00257903	     -0.01181842	      0.56903094	     34.02243794	    -11.69060438	    -12.88854669	    -45.11185833	     -2.49478660	     -0.93759850	      7.60545609	      4.31433046	      8.66860535	      7.00202356	     -7.51025770	      5.55618726	      5.73779693	     -3.16054832	      5.81864191	     -8.26153725	     -7.23847891
      4.86500000	     -8.69321367	      4.34614104	      6.21314338	      0.00865859	     -0.01225318	      0.56888648	     34.24785194	    -11.61660524	    -13.24323773	    -43.51527794	     -2.33632480	     -1.06857618	      6.88100181	      3.71948931	      8.51793607	      7.24212157	     -7.22266594	      5.84052168	      5.76641743	     -3.26951973	      5.79133346	     -8.17842822	     -7.50951530
      4.87000000	     -8.66111525	      4.25487896	      6.36618577	      0.01474662	     -0.01274596	      0.56875224	     34.43482418	    -11.54890670	    -13.59163601	    -41.88423683	     -2.15627540	     -1.15529658	      6.14562839	      3.11457250	      8.37382178	      7.48362938	     -6.94943862	      6.13728360	      5.79431028	     -3.38591090	      5.74508486	     -8.10193210	     -7.77456987
      4.87500000	     -8.64726537	      4.16890467	      6.51049224	      0.02087391	     -0.01332561	      0.56862768	     34.61994832	    -11.48618867	    -13.95282574	    -40.21833700	     -1.98529016	     -1.23106574	      5.49190021	      2.53690305	      8.23476291	      7.69642429	     -6.69250968	      6.43704705	      5.82467664	     -3.48198391	      5.72492024	     -8.03008722	     -8.02142920
      4.88000000	     -8.58927457	      4.09619620	      6.64459650	      0.02698199	     -0.01395024	      0.56852924	     34.74031335	    -11.42070951	    -14.28367178	    -38.53528463	     -1.74758340	     -1.20643752	      4.76343128	      1.92343473	      8.10278563	      7.91829583	     -6.46325814	      6.76227141	      5.83086421	     -3.60684352	      5.64480253	     -7.96223519	     -8.28488963
      4.88500000	     -8.58083991	      4.02540844	      6.78468097	      0.03313718	     -0.01466747	      0.56844039	     34.89568799	    -11.36743304	    -14.64332206	    -36.82820456	     -1.58423235	     -1.20094136	      4.18402810	      1.36495004	      7.97145475	      8.13415294	     -6.23619754	      7.07143944	      5.88467762	     -3.68328676	      5.62805199	     -7.90346950	     -8.50541951
      4.89000000	     -8.64645577	      3.96393253	      6.86496027	      0.03932747	     -0.01556829	      0.56838339	     35.13364679	    -11.28954813	    -14.89287746	    -35.10371867	     -1.41139607	     -1.10033447	      3.86314280	      0.90974090	      7.86343794	      8.25603292	     -6.05566425	      7.39555665	      5.90169866	     -3.68817556	      5.70312028	     -7.84473664	     -8.65456288
      4.89500000	     -8.48416153	      3.90131362	      7.04243724	      0.04549994	     -0.01624096	      0.56831729	     35.06533916	    -11.24425879	    -15.31803734	    -33.37829386	     -1.18402200	     -0.98809699	      3.17437709	      0.19576053	      7.71300853	      8.52775084	     -5.85812091	      7.73115662	      5.97274964	     -3.80313916	      5.49613999	     -7.78770832	     -8.96070930
      4.90000000	     -8.45200364	      3.82962429	      7.16856415	      0.05175005	     -0.01713746	      0.56827773	     35.14485945	    -11.16861806	    -15.66541910	    -31.66357862	     -0.97978645	     -0.78865237	      2.63788233	     -0.35504432	      7.57153394	      8.73338190	     -5.70888336	      8.08779891	      6.01175018	     -3.88100117	      5.45823946	     -7.71734347	     -9.17408356
